<?xml version="1.0" encoding="iso-8859-1"?>
<!-- Generator: Adobe Illustrator 19.0.0, SVG Export Plug-In . SVG Version: 6.00 Build 0)  -->
<svg version="1.1" id="Layer_1" xmlns="http://www.w3.org/2000/svg" xmlns:xlink="http://www.w3.org/1999/xlink" x="0px" y="0px"
	 viewBox="0 0 512.002 512.002" style="enable-background:new 0 0 512.002 512.002;" xml:space="preserve">
<g>
	<path style="fill:#2D527C;" d="M214.588,340.452h-11.593v-11.593c0-9.147-7.414-16.561-16.561-16.561s-16.561,7.414-16.561,16.561
		v11.593H158.28c-9.147,0-16.561,7.414-16.561,16.561s7.414,16.561,16.561,16.561h11.593v11.593c0,9.147,7.414,16.561,16.561,16.561
		s16.561-7.414,16.561-16.561v-11.593h11.593c9.147,0,16.561-7.414,16.561-16.561S223.734,340.452,214.588,340.452z"/>
	<path style="fill:#2D527C;" d="M270.895,227.837h-11.593v-11.593c0-9.147-7.416-16.561-16.561-16.561s-16.561,7.414-16.561,16.561
		v11.593h-11.593c-9.147,0-16.561,7.414-16.561,16.561c0,9.147,7.414,16.561,16.561,16.561h11.593v11.593
		c0,9.147,7.414,16.561,16.561,16.561s16.561-7.414,16.561-16.561v-11.593h11.593c9.145,0,16.561-7.414,16.561-16.561
		C287.456,235.252,280.042,227.837,270.895,227.837z"/>
</g>
<path style="fill:#CEE8FA;" d="M256,16.562c-24.626,0-48.375,3.71-70.732,10.616c97.693,30.174,168.69,121.21,168.69,228.823
	s-70.997,198.649-168.69,228.823c22.357,6.906,46.106,10.616,70.732,10.616c132.24,0,239.439-107.199,239.439-239.439
	S388.24,16.562,256,16.562z"/>
<path style="fill:#2D527C;" d="M256,0.001c-25.728,0-51.111,3.806-75.45,11.305c-0.038,0.012-0.078,0.022-0.116,0.033
	c-0.018,0.005-0.035,0.01-0.053,0.015c-0.46,0.142-0.909,0.306-1.35,0.485c-0.103,0.041-0.2,0.091-0.301,0.136
	c-0.359,0.154-0.714,0.318-1.058,0.495c-0.132,0.068-0.26,0.142-0.391,0.214c-0.308,0.169-0.609,0.346-0.904,0.533
	c-0.137,0.088-0.272,0.176-0.406,0.267c-0.282,0.19-0.555,0.392-0.823,0.6c-0.131,0.101-0.262,0.199-0.389,0.303
	c-0.286,0.235-0.56,0.482-0.828,0.735c-0.093,0.088-0.192,0.169-0.283,0.258c-0.331,0.326-0.646,0.669-0.949,1.02
	c-0.137,0.161-0.265,0.33-0.396,0.495c-0.172,0.219-0.343,0.437-0.505,0.664c-0.131,0.182-0.255,0.369-0.379,0.556
	c-0.157,0.242-0.308,0.487-0.452,0.735c-0.101,0.176-0.205,0.348-0.301,0.527c-0.21,0.392-0.406,0.793-0.583,1.204
	c-0.018,0.043-0.041,0.084-0.06,0.129c-0.2,0.472-0.373,0.957-0.53,1.449c-0.015,0.043-0.033,0.084-0.046,0.128
	c-0.028,0.091-0.043,0.182-0.07,0.275c-0.104,0.361-0.199,0.725-0.278,1.095c-0.038,0.172-0.075,0.344-0.106,0.518
	c-0.06,0.326-0.108,0.656-0.147,0.989c-0.023,0.189-0.051,0.376-0.07,0.565c-0.031,0.359-0.045,0.722-0.051,1.086
	c-0.007,0.321-0.002,0.641,0.01,0.961c0.01,0.29,0.02,0.58,0.045,0.866c0.02,0.225,0.053,0.447,0.081,0.671
	c0.036,0.277,0.075,0.553,0.124,0.826c0.038,0.207,0.081,0.412,0.126,0.618c0.066,0.296,0.139,0.588,0.22,0.878
	c0.05,0.179,0.099,0.358,0.154,0.533c0.109,0.346,0.234,0.686,0.364,1.022c0.045,0.116,0.084,0.235,0.132,0.349
	c0.189,0.454,0.396,0.898,0.623,1.332c0.045,0.086,0.098,0.167,0.144,0.253c0.187,0.341,0.383,0.676,0.591,1
	c0.096,0.149,0.199,0.293,0.298,0.439c0.176,0.255,0.356,0.505,0.547,0.75c0.121,0.157,0.245,0.313,0.373,0.465
	c0.189,0.227,0.388,0.447,0.588,0.662c0.136,0.146,0.268,0.295,0.409,0.437c0.258,0.258,0.528,0.505,0.803,0.745
	c0.182,0.159,0.368,0.315,0.556,0.465c0.272,0.219,0.545,0.431,0.831,0.633c0.169,0.119,0.344,0.229,0.518,0.341
	c0.25,0.162,0.502,0.32,0.762,0.469c0.179,0.103,0.359,0.202,0.542,0.298c0.29,0.152,0.585,0.293,0.886,0.429
	c0.161,0.073,0.32,0.149,0.484,0.217c0.472,0.195,0.951,0.374,1.446,0.528c93.917,29.008,157.018,114.605,157.018,212.999
	c0,3.049-0.061,6.085-0.182,9.107c-0.04,1.007-0.124,2.004-0.177,3.007c-0.106,2.009-0.204,4.019-0.363,6.017
	c-0.096,1.211-0.242,2.408-0.356,3.614c-0.171,1.775-0.323,3.556-0.535,5.319c-0.154,1.29-0.358,2.565-0.533,3.849
	c-0.229,1.664-0.439,3.334-0.704,4.987c-0.212,1.322-0.47,2.628-0.706,3.943c-0.285,1.598-0.553,3.203-0.873,4.791
	c-0.268,1.336-0.583,2.656-0.876,3.985c-0.34,1.547-0.664,3.099-1.037,4.632c-0.326,1.346-0.697,2.676-1.048,4.013
	c-0.392,1.497-0.77,2.999-1.192,4.483c-0.383,1.345-0.807,2.671-1.214,4.004c-0.445,1.457-0.874,2.92-1.348,4.365
	c-0.437,1.335-0.914,2.651-1.376,3.975c-0.497,1.421-0.979,2.848-1.504,4.258c-0.492,1.323-1.022,2.628-1.539,3.94
	c-0.545,1.386-1.08,2.776-1.651,4.149c-0.547,1.31-1.129,2.602-1.701,3.898c-0.593,1.348-1.176,2.701-1.795,4.036
	c-0.599,1.292-1.234,2.565-1.858,3.845c-0.641,1.313-1.274,2.633-1.939,3.933c-0.651,1.269-1.333,2.519-2.007,3.774
	c-0.689,1.282-1.37,2.569-2.083,3.836c-0.701,1.245-1.433,2.471-2.156,3.7c-0.735,1.249-1.464,2.501-2.222,3.733
	c-0.752,1.221-1.532,2.423-2.307,3.629c-0.778,1.211-1.552,2.426-2.353,3.622c-0.8,1.194-1.628,2.368-2.451,3.546
	c-0.823,1.176-1.641,2.355-2.487,3.516c-0.846,1.163-1.719,2.305-2.589,3.45c-0.868,1.143-1.732,2.289-2.622,3.415
	c-0.893,1.129-1.81,2.241-2.724,3.354c-0.909,1.105-1.817,2.213-2.747,3.301c-0.939,1.098-1.9,2.176-2.86,3.256
	c-0.951,1.068-1.901,2.138-2.873,3.188c-0.982,1.062-1.984,2.103-2.988,3.145c-0.994,1.032-1.987,2.064-3.001,3.075
	c-1.023,1.023-2.067,2.027-3.11,3.031c-1.035,0.995-2.072,1.987-3.127,2.961c-1.063,0.984-2.146,1.949-3.229,2.911
	c-1.076,0.956-2.155,1.908-3.251,2.844c-1.103,0.941-2.221,1.865-3.344,2.786c-1.118,0.917-2.239,1.828-3.375,2.726
	c-1.139,0.898-2.294,1.779-3.451,2.655s-2.322,1.747-3.498,2.602c-1.174,0.853-2.363,1.691-3.556,2.521
	c-1.199,0.835-2.405,1.664-3.622,2.478c-1.207,0.805-2.426,1.596-3.65,2.38c-1.24,0.793-2.489,1.58-3.748,2.35
	c-1.237,0.757-2.487,1.5-3.743,2.236c-1.282,0.75-2.57,1.49-3.869,2.216c-1.27,0.709-2.549,1.406-3.836,2.092
	c-1.318,0.704-2.646,1.394-3.983,2.073c-1.3,0.659-2.608,1.308-3.923,1.944c-1.36,0.656-2.726,1.3-4.102,1.931
	c-1.327,0.609-2.661,1.207-4.004,1.79c-1.398,0.608-2.804,1.201-4.218,1.784c-1.353,0.556-2.713,1.103-4.081,1.636
	c-1.436,0.558-2.88,1.1-4.332,1.63c-1.38,0.503-2.762,1-4.157,1.479c-0.666,0.229-1.341,0.442-2.012,0.666
	C94.018,436.96,33.122,352.654,33.122,256.001c0-44.547,13.096-87.541,37.873-124.332c5.109-7.587,3.102-17.878-4.485-22.987
	c-7.588-5.111-17.878-3.1-22.987,4.485C15.049,155.446,0,204.837,0,256.001c0,55.804,17.642,108.844,51.021,153.383
	c32.264,43.054,78.203,75.464,129.353,91.261c0.003,0,0.005,0.002,0.008,0.003c24.389,7.534,49.832,11.353,75.619,11.353
	c141.158,0,256-114.841,256-256S397.158,0.001,256,0.001z M256,478.879c-4.934,0-9.85-0.161-14.748-0.48
	c0.291-0.167,0.578-0.344,0.868-0.512c1.353-0.782,2.699-1.575,4.039-2.381c0.548-0.33,1.095-0.664,1.641-0.999
	c1.227-0.752,2.446-1.514,3.66-2.285c0.489-0.31,0.979-0.618,1.464-0.931c1.658-1.07,3.307-2.153,4.94-3.261
	c0.154-0.104,0.303-0.212,0.457-0.316c1.486-1.01,2.958-2.039,4.422-3.08c0.497-0.354,0.99-0.712,1.486-1.07
	c1.161-0.838,2.315-1.686,3.463-2.544c0.49-0.368,0.984-0.732,1.471-1.103c1.409-1.07,2.809-2.151,4.197-3.249
	c0.167-0.132,0.34-0.262,0.507-0.396c1.548-1.232,3.082-2.486,4.602-3.753c0.429-0.358,0.853-0.722,1.28-1.081
	c1.116-0.942,2.224-1.893,3.324-2.855c0.474-0.414,0.947-0.828,1.418-1.245c1.177-1.045,2.347-2.102,3.506-3.166
	c0.311-0.285,0.624-0.566,0.934-0.853c1.449-1.346,2.883-2.709,4.301-4.089c0.343-0.333,0.679-0.672,1.02-1.007
	c1.086-1.068,2.165-2.146,3.233-3.234c0.445-0.454,0.888-0.909,1.33-1.366c1.03-1.065,2.049-2.14,3.06-3.223
	c0.363-0.388,0.729-0.772,1.088-1.163c1.343-1.456,2.671-2.923,3.98-4.41c0.217-0.247,0.429-0.5,0.646-0.747
	c1.093-1.25,2.173-2.512,3.241-3.784c0.404-0.48,0.803-0.965,1.204-1.449c0.916-1.108,1.823-2.224,2.721-3.349
	c0.373-0.465,0.747-0.931,1.115-1.399c1.227-1.56,2.443-3.128,3.632-4.718c33.377-44.541,51.019-97.579,51.019-153.383
	c0-8.719-0.431-17.371-1.285-25.933c-4.442-44.524-20.332-86.632-46.651-123.249c-1.012-1.408-2.04-2.809-3.084-4.2
	c-1.189-1.587-2.401-3.153-3.627-4.71c-0.374-0.477-0.755-0.947-1.133-1.421c-0.889-1.115-1.789-2.221-2.696-3.319
	c-0.406-0.492-0.813-0.984-1.222-1.472c-1.053-1.255-2.12-2.499-3.198-3.733c-0.23-0.265-0.457-0.533-0.689-0.797
	c-1.302-1.479-2.623-2.941-3.96-4.389c-0.373-0.404-0.752-0.802-1.126-1.204c-0.999-1.068-2.004-2.128-3.019-3.18
	c-0.45-0.465-0.901-0.931-1.355-1.393c-1.053-1.073-2.118-2.136-3.19-3.191c-0.354-0.348-0.704-0.701-1.06-1.047
	c-1.413-1.375-2.84-2.731-4.284-4.072c-0.32-0.296-0.644-0.586-0.965-0.883c-1.149-1.057-2.307-2.103-3.475-3.138
	c-0.477-0.422-0.954-0.841-1.434-1.26c-1.093-0.956-2.194-1.9-3.304-2.837c-0.432-0.364-0.863-0.734-1.298-1.096
	c-1.519-1.265-3.049-2.519-4.596-3.749c-0.167-0.132-0.34-0.262-0.507-0.396c-1.388-1.098-2.789-2.181-4.198-3.251
	c-0.487-0.369-0.977-0.734-1.466-1.1c-1.151-0.861-2.307-1.711-3.471-2.552c-0.492-0.354-0.982-0.712-1.476-1.063
	c-1.472-1.048-2.954-2.082-4.447-3.099c-0.146-0.099-0.288-0.2-0.432-0.3c-1.64-1.11-3.292-2.198-4.955-3.271
	c-0.474-0.306-0.952-0.604-1.428-0.908c-1.229-0.782-2.463-1.552-3.705-2.312c-0.533-0.326-1.067-0.653-1.603-0.975
	c-1.358-0.818-2.724-1.623-4.097-2.416c-0.278-0.161-0.551-0.33-0.828-0.489c4.897-0.32,9.814-0.48,14.748-0.48
	c122.896,0,222.878,99.984,222.878,222.878S378.896,478.879,256,478.879z"/>
<g>
</g>
<g>
</g>
<g>
</g>
<g>
</g>
<g>
</g>
<g>
</g>
<g>
</g>
<g>
</g>
<g>
</g>
<g>
</g>
<g>
</g>
<g>
</g>
<g>
</g>
<g>
</g>
<g>
</g>
</svg>
