<?xml version="1.0" encoding="iso-8859-1"?>
<!-- Generator: Adobe Illustrator 19.0.0, SVG Export Plug-In . SVG Version: 6.00 Build 0)  -->
<svg version="1.1" id="Layer_1" xmlns="http://www.w3.org/2000/svg" xmlns:xlink="http://www.w3.org/1999/xlink" x="0px" y="0px"
	 viewBox="0 0 512 512" style="enable-background:new 0 0 512 512;" xml:space="preserve">
<path style="fill:#2D527C;" d="M416.48,164.187c-29.356,0-54.809-20.868-60.523-49.622c-0.785-3.96-1.185-8.023-1.185-12.081
	c0-41.379,45.63-92.073,50.832-97.718c5.535-6.005,14.893-6.388,20.9-0.85c6.008,5.536,6.387,14.893,0.85,20.9
	c-11.956,13.001-43,52.312-43,77.668c0,2.127,0.209,4.252,0.618,6.317c2.971,14.952,16.223,25.806,31.508,25.806
	c15.285,0,28.536-10.854,31.508-25.807c0.41-2.063,0.618-4.189,0.618-6.316c0-7.094-2.656-19.906-15.312-40.653
	c-4.254-6.974-2.049-16.075,4.925-20.329c6.974-4.255,16.075-2.049,20.329,4.925c13.032,21.364,19.638,40.224,19.638,56.057
	c0,4.059-0.399,8.122-1.185,12.08C471.288,143.317,445.834,164.187,416.48,164.187z"/>
<g>
	<path style="fill:#CEE8FA;" d="M155.363,335.834c-0.444-27.197,4.326-119.3,84.338-162.586l12.75-6.897
		c1.584-2.865,2.477-4.468,2.477-4.468c-92.459,1.71-173.379,65.33-196.782,154.714l-10.222,39.036l31.817-24.819
		c10.166-7.929,22.868-11.272,35.772-9.414c11.988,1.726,22.797,8.058,30.434,17.829l9.676,12.38L155.363,335.834z"/>
	<path style="fill:#CEE8FA;" d="M256.187,163.322l18.196,9.848c80.01,43.302,84.78,135.374,84.336,162.562l-0.469,28.68
		l-20.487-20.074c-8.046-7.884-18.947-12.407-29.91-12.407c-11.564,0-22.402,4.576-30.52,12.886l-21.148,21.651V163.322H256.187z"/>
</g>
<path style="fill:#2D527C;" d="M478.381,351.888l-10.221-39.038c-23.915-91.341-103.893-157.569-197.183-165.08v-14.535
	c0-8.169-6.623-14.791-14.791-14.791c-8.168,0-14.791,6.622-14.791,14.791v14.51c-93.452,7.363-173.611,73.644-197.559,165.108
	l-10.221,39.036c-1.606,6.135,0.879,12.612,6.175,16.1c2.476,1.63,5.307,2.436,8.132,2.436c3.221,0,6.436-1.05,9.098-3.128
	l31.817-24.819c6.958-5.427,15.686-7.715,24.566-6.437c8.194,1.18,15.612,5.547,20.888,12.297l9.676,12.381
	c3.914,5.01,10.589,6.955,16.584,4.838c5.995-2.12,9.962-7.83,9.86-14.186l-0.257-15.777
	c-0.399-24.461,3.702-105.773,71.242-146.275v177.149V497.21c0,8.169,6.623,14.791,14.791,14.791
	c8.168,0,14.791-6.622,14.791-14.791V372.493l16.937-17.339c5.311-5.437,12.392-8.431,19.938-8.431
	c7.125,0,14.254,2.982,19.558,8.181l20.488,20.074c4.221,4.136,10.502,5.362,15.971,3.116c5.467-2.245,9.074-7.53,9.17-13.44
	l0.467-28.678c0.395-24.262-3.124-96.511-53.959-147.468c57.892,21.376,103.791,69.955,119.996,131.84l10.221,39.036
	c1.741,6.647,7.734,11.049,14.298,11.049c1.24,0,2.5-0.157,3.757-0.487C475.722,367.874,480.451,359.79,478.381,351.888z
	 M141.223,315.367c-7.144-4.442-15.146-7.39-23.603-8.607c-3.007-0.432-6.057-0.652-9.064-0.652
	c-12.754,0-24.869,3.818-35.247,11.072c17.257-61.575,64.045-109.549,122.54-129.905
	C154.489,227.789,143.708,282.359,141.223,315.367z M343.935,330.053c-10.244-8.261-23.115-12.915-36.082-12.915
	c-13.649,0-26.544,4.727-36.877,13.42V188.215C335.734,225.792,343.528,300.42,343.935,330.053z"/>
<g>
</g>
<g>
</g>
<g>
</g>
<g>
</g>
<g>
</g>
<g>
</g>
<g>
</g>
<g>
</g>
<g>
</g>
<g>
</g>
<g>
</g>
<g>
</g>
<g>
</g>
<g>
</g>
<g>
</g>
</svg>
