<?xml version="1.0" encoding="iso-8859-1"?>
<!-- Generator: Adobe Illustrator 19.0.0, SVG Export Plug-In . SVG Version: 6.00 Build 0)  -->
<svg version="1.1" id="Layer_1" xmlns="http://www.w3.org/2000/svg" xmlns:xlink="http://www.w3.org/1999/xlink" x="0px" y="0px"
	 viewBox="0 0 512 512" style="enable-background:new 0 0 512 512;" xml:space="preserve">
<path style="fill:#CEE8FA;" d="M256,285.767c-64.789,0-123.282,29.246-164.852,76.234C106.463,439.055,174.452,497.116,256,497.116
	s149.537-58.061,164.852-135.114C379.282,315.014,320.789,285.767,256,285.767z M317.005,419.73
	c-18.495,0-33.488-14.994-33.488-33.488s14.994-33.488,33.488-33.488c18.496,0,33.488,14.994,33.488,33.488
	C350.494,404.738,335.501,419.73,317.005,419.73z"/>
<g>
	<path style="fill:#2D527C;" d="M438.966,329.049c0-49.613-21.797-110.506-64.783-180.983c-4.279-7.018-13.437-9.238-20.456-4.956
		c-7.018,4.279-9.237,13.439-4.956,20.456c40.097,65.741,60.429,121.418,60.429,165.483c0,0.11-0.004,0.22-0.004,0.33
		c-43.146-37.931-96.519-58.496-153.195-58.496s-110.049,20.565-153.194,58.495c0-0.11-0.004-0.22-0.004-0.329
		c0-105.374,116.495-249.024,153.213-291.675c9.247,10.716,23.54,27.809,39.702,49.036c4.98,6.54,14.317,7.805,20.858,2.825
		s7.805-14.318,2.825-20.858c-28.874-37.922-51.508-62.55-52.458-63.58C264.125,1.738,260.157,0,256,0s-8.125,1.738-10.944,4.796
		c-7.024,7.62-172.022,188.179-172.022,324.254c0,12.029,1.182,24.091,3.516,35.853C93.491,450.137,168.962,512,256,512
		c8.159,0,16.217-0.543,24.135-1.6c2.639-0.351,5.263-0.761,7.869-1.225c3.91-0.697,7.781-1.52,11.611-2.462
		c67.638-16.668,121.805-71.226,135.835-141.809c0.001-0.009,0.001-0.018,0.003-0.025
		C437.784,353.127,438.966,341.072,438.966,329.049z M249.311,482.084c-0.749-0.033-1.488-0.1-2.236-0.143
		c-1.468-0.085-2.937-0.165-4.395-0.292c-0.881-0.077-1.753-0.19-2.63-0.281c-1.311-0.137-2.625-0.265-3.928-0.436
		c-0.939-0.124-1.868-0.281-2.803-0.421c-1.228-0.185-2.459-0.359-3.678-0.573c-0.963-0.168-1.916-0.371-2.874-0.557
		c-1.177-0.229-2.358-0.451-3.527-0.708c-0.972-0.213-1.933-0.457-2.899-0.689c-1.139-0.274-2.28-0.542-3.411-0.841
		c-0.973-0.258-1.936-0.543-2.902-0.82c-1.107-0.317-2.215-0.628-3.312-0.969c-0.969-0.301-1.927-0.627-2.887-0.947
		c-1.078-0.359-2.157-0.714-3.224-1.095c-0.961-0.344-1.913-0.71-2.865-1.073c-1.048-0.399-2.097-0.796-3.135-1.217
		c-0.951-0.385-1.893-0.792-2.835-1.197c-1.021-0.438-2.041-0.878-3.05-1.337c-0.938-0.427-1.866-0.871-2.794-1.317
		c-0.993-0.476-1.984-0.956-2.965-1.453c-0.923-0.467-1.837-0.95-2.749-1.436c-0.966-0.513-1.929-1.033-2.883-1.567
		c-0.905-0.506-1.801-1.025-2.694-1.549c-0.938-0.551-1.871-1.106-2.797-1.676c-0.887-0.546-1.767-1.101-2.64-1.665
		c-0.908-0.585-1.811-1.177-2.707-1.782c-0.866-0.583-1.725-1.176-2.579-1.776c-0.88-0.619-1.753-1.247-2.62-1.884
		c-0.844-0.621-1.68-1.247-2.511-1.884c-0.851-0.652-1.692-1.316-2.529-1.986c-0.82-0.656-1.634-1.317-2.441-1.99
		c-0.82-0.685-1.63-1.381-2.436-2.084c-0.793-0.691-1.585-1.386-2.365-2.093c-0.79-0.716-1.566-1.445-2.341-2.177
		c-0.767-0.725-1.532-1.451-2.283-2.191c-0.759-0.749-1.505-1.512-2.249-2.276c-0.735-0.756-1.472-1.511-2.192-2.282
		c-0.729-0.78-1.441-1.575-2.154-2.37c-0.705-0.787-1.412-1.572-2.102-2.374c-0.697-0.81-1.374-1.636-2.052-2.46
		c-0.673-0.816-1.35-1.63-2.006-2.46c-0.664-0.839-1.305-1.698-1.953-2.553c-0.639-0.844-1.283-1.683-1.905-2.542
		c-0.63-0.868-1.234-1.755-1.846-2.637c-0.604-0.872-1.216-1.738-1.802-2.622c-0.597-0.9-1.165-1.819-1.744-2.733
		c-0.566-0.893-1.14-1.78-1.688-2.686c-0.566-0.938-1.103-1.896-1.649-2.847c-0.522-0.908-1.057-1.808-1.56-2.728
		c-0.539-0.985-1.046-1.991-1.564-2.992c-0.472-0.909-0.96-1.81-1.414-2.731c-0.521-1.058-1.008-2.137-1.505-3.209
		c-0.412-0.887-0.844-1.765-1.24-2.663c-0.549-1.246-1.058-2.515-1.576-3.78c-0.305-0.744-0.631-1.476-0.924-2.227
		c-0.786-2.012-1.532-4.045-2.234-6.099c-0.252-0.737-0.47-1.49-0.713-2.233c-0.438-1.344-0.883-2.685-1.283-4.047
		c-0.255-0.866-0.475-1.749-0.714-2.623c-0.32-1.165-0.649-2.326-0.944-3.504c40.042-42.393,92.539-65.649,148.627-65.649
		c56.086,0,108.584,23.254,148.626,65.657c-0.327,1.313-0.691,2.611-1.052,3.908c-0.202,0.726-0.382,1.462-0.595,2.182
		c-0.484,1.645-1.014,3.267-1.549,4.886c-0.153,0.461-0.287,0.933-0.445,1.392c-0.71,2.078-1.463,4.133-2.259,6.166
		c-0.141,0.36-0.301,0.71-0.444,1.069c-0.664,1.658-1.34,3.31-2.058,4.938c-0.319,0.72-0.667,1.421-0.994,2.136
		c-0.576,1.25-1.145,2.503-1.752,3.734c-0.397,0.804-0.825,1.59-1.235,2.384c-0.576,1.118-1.145,2.24-1.747,3.34
		c-0.455,0.832-0.939,1.643-1.409,2.465c-0.595,1.04-1.183,2.085-1.801,3.109c-0.505,0.835-1.036,1.652-1.555,2.477
		c-0.621,0.985-1.235,1.975-1.878,2.944c-0.546,0.825-1.116,1.63-1.679,2.444c-0.652,0.942-1.299,1.889-1.971,2.816
		c-0.588,0.81-1.195,1.601-1.798,2.399c-0.682,0.902-1.359,1.805-2.058,2.691c-0.627,0.792-1.271,1.566-1.913,2.346
		c-0.71,0.863-1.418,1.727-2.148,2.573c-0.661,0.768-1.34,1.521-2.015,2.276c-0.741,0.828-1.482,1.655-2.24,2.466
		c-0.694,0.743-1.404,1.469-2.112,2.197c-0.771,0.793-1.545,1.584-2.332,2.361c-0.726,0.714-1.465,1.415-2.204,2.115
		c-0.801,0.758-1.604,1.512-2.42,2.252c-0.756,0.686-1.523,1.359-2.292,2.029c-0.831,0.723-1.664,1.441-2.509,2.145
		c-0.783,0.653-1.576,1.296-2.372,1.933c-0.859,0.688-1.724,1.369-2.597,2.039c-0.81,0.621-1.627,1.231-2.448,1.835
		c-0.887,0.653-1.782,1.296-2.682,1.93c-0.835,0.586-1.674,1.165-2.52,1.735c-0.915,0.618-1.84,1.223-2.768,1.82
		c-0.856,0.551-1.716,1.095-2.584,1.628c-0.944,0.581-1.895,1.148-2.852,1.709c-0.878,0.515-1.758,1.024-2.646,1.521
		c-0.97,0.543-1.95,1.07-2.932,1.593c-0.897,0.478-1.795,0.951-2.703,1.411c-0.996,0.505-2.002,0.991-3.011,1.475
		c-0.914,0.438-1.828,0.877-2.752,1.296c-1.024,0.466-2.057,0.911-3.093,1.356c-0.929,0.399-1.857,0.799-2.795,1.179
		c-1.051,0.426-2.112,0.829-3.173,1.232c-0.941,0.357-1.881,0.72-2.831,1.06c-1.076,0.385-2.164,0.744-3.252,1.106
		c-0.953,0.317-1.904,0.64-2.864,0.939c-1.104,0.342-2.219,0.656-3.332,0.975c-0.96,0.274-1.917,0.558-2.883,0.814
		c-1.136,0.301-2.283,0.57-3.429,0.845c-0.96,0.231-1.916,0.473-2.883,0.685c-1.174,0.258-2.359,0.481-3.541,0.711
		c-0.954,0.186-1.902,0.387-2.861,0.554c-1.223,0.214-2.459,0.39-3.691,0.574c-0.93,0.14-1.856,0.296-2.791,0.42
		c-1.305,0.171-2.622,0.299-3.938,0.438c-0.874,0.092-1.743,0.204-2.62,0.281c-1.46,0.128-2.932,0.207-4.401,0.293
		c-0.744,0.043-1.482,0.11-2.23,0.143c-2.219,0.097-4.45,0.149-6.689,0.149C253.756,482.228,251.532,482.182,249.311,482.084z"/>
	<path style="fill:#2D527C;" d="M317.005,434.614c26.673,0,48.372-21.7,48.372-48.372c0-26.672-21.699-48.372-48.372-48.372
		s-48.372,21.7-48.372,48.372S290.332,434.614,317.005,434.614z M317.005,367.637c10.259,0,18.605,8.345,18.605,18.605
		c0,10.259-8.345,18.605-18.605,18.605c-10.259,0-18.605-8.345-18.605-18.605C298.401,375.982,306.748,367.637,317.005,367.637z"/>
</g>
<g>
</g>
<g>
</g>
<g>
</g>
<g>
</g>
<g>
</g>
<g>
</g>
<g>
</g>
<g>
</g>
<g>
</g>
<g>
</g>
<g>
</g>
<g>
</g>
<g>
</g>
<g>
</g>
<g>
</g>
</svg>
