<?xml version="1.0" encoding="iso-8859-1"?>
<!-- Generator: Adobe Illustrator 19.0.0, SVG Export Plug-In . SVG Version: 6.00 Build 0)  -->
<svg version="1.1" id="Layer_1" xmlns="http://www.w3.org/2000/svg" xmlns:xlink="http://www.w3.org/1999/xlink" x="0px" y="0px"
	 viewBox="0 0 512 512" style="enable-background:new 0 0 512 512;" xml:space="preserve">
<circle style="fill:#CEE8FA;" cx="221.32" cy="381.469" r="59.943"/>
<g>
	<path style="fill:#2D527C;" d="M221.326,455.991c-41.09,0-74.52-33.43-74.52-74.52s33.43-74.52,74.52-74.52
		c41.092,0,74.52,33.43,74.52,74.52S262.416,455.991,221.326,455.991z M221.326,336.107c-25.014,0-45.364,20.35-45.364,45.364
		s20.35,45.364,45.364,45.364s45.364-20.35,45.364-45.364C266.69,356.458,246.339,336.107,221.326,336.107z"/>
	<path style="fill:#2D527C;" d="M221.361,512c-1.061,0-2.121-0.012-3.187-0.038c-70.33-1.662-127.472-60.279-127.377-130.668
		c0.063-46.593,24.418-88.794,64.149-112.209V58.856C154.948,26.403,181.349,0,213.804,0h15.046
		c32.453,0,58.856,26.403,58.856,58.856c0,8.051-6.528,14.578-14.578,14.578c-8.05,0-14.578-6.526-14.578-14.578
		c0-16.377-13.324-29.701-29.701-29.701h-15.046c-16.377,0-29.701,13.324-29.701,29.701V277.74c0,5.521-3.118,10.567-8.054,13.037
		c-34.548,17.288-56.042,51.987-56.093,90.556c-0.073,54.666,44.297,100.191,98.911,101.482c27.53,0.647,53.592-9.582,73.283-28.814
		c19.7-19.24,30.549-44.998,30.549-72.528c0-16.547-4.073-32.956-11.777-47.455c-3.779-7.108-1.079-15.935,6.031-19.713
		c7.108-3.779,15.936-1.077,19.713,6.032c9.936,18.696,15.189,39.836,15.189,61.136c0,35.449-13.968,68.614-39.332,93.388
		C287.924,498.88,255.657,511.999,221.361,512z"/>
	<path style="fill:#2D527C;" d="M221.326,283.23c-8.051,0-14.578-6.526-14.578-14.578v-117.64c0-8.051,6.526-14.578,14.578-14.578
		c8.051,0,14.578,6.526,14.578,14.578v117.64C235.903,276.703,229.377,283.23,221.326,283.23z"/>
	<path style="fill:#2D527C;" d="M406.627,194.306H287.704v-30.613h64.823c8.05,0,14.578-6.526,14.578-14.578
		s-6.528-14.578-14.578-14.578h-77.941c-0.249,0-0.491,0.025-0.736,0.038c-0.241-0.012-0.478-0.036-0.723-0.036
		c-8.05,0-14.578,6.526-14.578,14.578v119.537c0,8.051,6.528,14.578,14.578,14.578c0.246,0,0.485-0.025,0.729-0.036
		c0.243,0.012,0.484,0.036,0.729,0.036h77.941c8.05,0,14.578-6.526,14.578-14.578s-6.528-14.578-14.578-14.578h-64.823v-30.613
		h118.923c8.05,0,14.578-6.526,14.578-14.578C421.203,200.834,414.678,194.306,406.627,194.306z"/>
	<path style="fill:#2D527C;" d="M304.994,9.908c0-4.933,5.241-7.401,10.483-7.401h53.494c5.088,0,7.245,5.397,7.245,10.33
		c0,5.704-2.621,10.637-7.245,10.637h-39.928v26.055h23.279c4.624,0,7.245,4.47,7.245,9.404c0,4.162-2.159,9.096-7.245,9.096
		h-23.279v39.774c0,4.932-6.012,7.4-12.025,7.4c-6.013,0-12.024-2.467-12.024-7.4V9.908z"/>
</g>
<g>
</g>
<g>
</g>
<g>
</g>
<g>
</g>
<g>
</g>
<g>
</g>
<g>
</g>
<g>
</g>
<g>
</g>
<g>
</g>
<g>
</g>
<g>
</g>
<g>
</g>
<g>
</g>
<g>
</g>
</svg>
