<?xml version="1.0" encoding="iso-8859-1"?>
<!-- Generator: Adobe Illustrator 19.0.0, SVG Export Plug-In . SVG Version: 6.00 Build 0)  -->
<svg version="1.1" id="Layer_1" xmlns="http://www.w3.org/2000/svg" xmlns:xlink="http://www.w3.org/1999/xlink" x="0px" y="0px"
	 viewBox="0 0 511.995 511.995" style="enable-background:new 0 0 511.995 511.995;" xml:space="preserve">
<g>
	<path style="fill:#2D527C;" d="M498.3,182.14c-7.565,0-13.7,6.133-13.7,13.7c0,14.975-20.324,31.507-54.365,44.221
		c-6.558,2.45-13.513,4.698-20.763,6.773c-2.23,0.636-4.487,1.255-6.77,1.855c-0.014,0.004-0.026,0.007-0.04,0.011
		c-11.335,2.974-23.316,5.488-35.795,7.542c-0.664,0.108-1.325,0.222-1.992,0.329c-1.833,0.293-3.684,0.57-5.539,0.843
		c-1.147,0.169-2.296,0.334-3.451,0.495c-1.607,0.225-3.219,0.442-4.841,0.652c-1.545,0.199-3.102,0.386-4.661,0.571
		c-1.334,0.159-2.665,0.322-4.009,0.471c-2.562,0.282-5.142,0.547-7.736,0.793c-0.403,0.038-0.8,0.084-1.204,0.122
		c-3.069,0.284-6.164,0.538-9.275,0.77c-0.862,0.064-1.732,0.118-2.596,0.178c-2.284,0.159-4.576,0.31-6.881,0.441
		c-1.053,0.06-2.113,0.114-3.169,0.169c-2.159,0.111-4.326,0.21-6.502,0.296c-1.093,0.044-2.186,0.086-3.284,0.123
		c-2.255,0.077-4.521,0.134-6.792,0.185c-0.981,0.022-1.956,0.049-2.94,0.066c-3.225,0.053-6.459,0.088-9.709,0.088
		c-0.003,0-0.005,0-0.008,0c-7.565,0-13.7,6.133-13.7,13.7s6.135,13.7,13.7,13.7c0,0,0,0,0.001,0l0,0
		c2.325,0,4.643-0.018,6.957-0.045c0.69-0.008,1.38-0.018,2.069-0.029c1.752-0.026,3.5-0.06,5.244-0.101
		c0.64-0.015,1.28-0.027,1.918-0.044c2.139-0.058,4.27-0.127,6.396-0.207c0.896-0.034,1.788-0.074,2.681-0.111
		c1.329-0.056,2.656-0.116,3.98-0.182c1.032-0.051,2.063-0.101,3.092-0.158c1.351-0.074,2.696-0.155,4.04-0.238
		c1.728-0.107,3.451-0.221,5.169-0.342c0.982-0.07,1.965-0.138,2.944-0.214c1.243-0.095,2.481-0.193,3.718-0.295
		c0.88-0.073,1.755-0.149,2.632-0.226c2.162-0.189,4.313-0.39,6.454-0.604c0.855-0.085,1.711-0.167,2.562-0.256
		c1.208-0.126,2.41-0.259,3.611-0.393c0.947-0.105,1.891-0.214,2.835-0.325c1.121-0.132,2.243-0.262,3.358-0.4
		c1.841-0.227,3.673-0.463,5.496-0.708c0.841-0.114,1.675-0.233,2.513-0.351c1.366-0.19,2.728-0.386,4.083-0.588
		c0.74-0.11,1.478-0.219,2.214-0.333c4.35-0.666,8.642-1.384,12.875-2.154c0.192-0.036,0.384-0.07,0.575-0.105
		c6.843-1.252,13.524-2.639,20.022-4.158c-5.448,9.658-21.676,21.862-54.58,31.888c-7.236,2.206-11.317,9.86-9.11,17.097
		c1.799,5.907,7.228,9.71,13.1,9.71c1.323,0,2.667-0.193,3.999-0.599c49.115-14.964,76.164-38.172,76.164-65.345
		c0-0.332-0.016-0.662-0.026-0.993c3.602-1.186,7.128-2.415,10.556-3.695c46.544-17.385,72.176-42.206,72.176-69.889
		C512,188.274,505.865,182.14,498.3,182.14z"/>
	<path style="fill:#2D527C;" d="M86.707,73.094c42.494-15.873,99.275-24.613,159.889-24.613s117.395,8.74,159.889,24.613
		c37.136,13.871,59.308,32.07,59.308,48.681c0,6.713-3.596,13.705-10.69,20.784c-2.969,2.818-4.651,6.929-4.211,11.316
		c0.525,5.252,4.022,9.736,8.99,11.526c4.965,1.791,10.52,0.564,14.274-3.147c12.631-12.489,19.037-26.108,19.037-40.479
		c0-29.368-27.389-55.772-77.12-74.347c-45.482-16.99-105.67-26.346-169.476-26.346S122.602,30.437,77.12,47.428
		C27.389,66.003,0,92.407,0,121.775c0,17.51,9.676,42.262,53.663,64.218c-0.73,3.25-1.097,6.536-1.097,9.847
		c0,11.839,4.531,23.027,13.257,33.312c-20.014,14.842-24.724,30.156-24.724,41.265c0,12.256,5.794,30.371,33.397,47.068
		c13.609,8.232,31.219,15.308,51.706,20.835c-2.217,4.895-2.904,9.43-2.904,13.172c0,18.752,15.905,34.401,45.283,45.026
		c-0.744,2.6-1.003,5.018-1.003,7.128c0,19.867,21.587,35.065,59.225,41.695c0.804,0.141,1.603,0.21,2.392,0.21
		c6.524,0,12.304-4.678,13.476-11.326c1.312-7.451-3.665-14.556-11.116-15.868c-23.581-4.154-34.44-11.454-36.402-14.679
		c0.455-0.67,1.565-1.918,3.787-3.472c4.409-3.08,6.606-8.453,5.622-13.739c-0.985-5.287-4.972-9.508-10.193-10.793
		c-32.999-8.125-43.673-19.802-43.673-24.183c0-2.034,2.247-5.754,8.549-10.09c4.541-3.126,6.768-8.671,5.648-14.07
		c-1.121-5.399-5.368-9.599-10.779-10.661c-56.207-11.02-85.617-31.609-85.617-46.253c0-7.139,6.803-15.263,18.933-22.853
		c10.897,7.064,24.247,13.475,39.902,19.118c0.581,0.21,1.155,0.422,1.741,0.629c0.711,0.251,1.436,0.497,2.156,0.745
		c0.912,0.314,1.828,0.627,2.755,0.936c0.64,0.214,1.284,0.425,1.93,0.636c1.104,0.36,2.221,0.715,3.345,1.069
		c0.511,0.16,1.017,0.322,1.532,0.479c1.674,0.516,3.365,1.026,5.083,1.526c0.571,0.166,1.144,0.279,1.717,0.37
		c0.16,0.025,0.319,0.044,0.478,0.063c0.456,0.055,0.912,0.088,1.366,0.096c0.09,0.001,0.181,0.019,0.271,0.019
		c0.049,0,0.099-0.005,0.148-0.005c0.125-0.001,0.248-0.011,0.373-0.015c0.295-0.011,0.589-0.03,0.881-0.06
		c0.137-0.014,0.274-0.031,0.411-0.051c0.285-0.038,0.566-0.086,0.847-0.142c0.127-0.025,0.255-0.049,0.381-0.078
		c0.318-0.073,0.632-0.159,0.943-0.253c0.079-0.025,0.16-0.044,0.24-0.07c0.395-0.129,0.782-0.274,1.163-0.437
		c0.049-0.021,0.096-0.047,0.144-0.067c0.323-0.142,0.641-0.297,0.952-0.466c0.107-0.058,0.211-0.121,0.316-0.181
		c0.251-0.144,0.497-0.293,0.738-0.453c0.112-0.074,0.223-0.149,0.333-0.226c0.236-0.164,0.463-0.338,0.688-0.518
		c0.097-0.078,0.197-0.153,0.293-0.236c0.269-0.226,0.526-0.464,0.777-0.711c0.041-0.041,0.085-0.077,0.126-0.118
		c0.289-0.293,0.564-0.601,0.827-0.922c0.067-0.081,0.127-0.167,0.192-0.249c0.189-0.242,0.374-0.489,0.548-0.745
		c0.081-0.119,0.158-0.241,0.234-0.363c0.148-0.234,0.29-0.474,0.426-0.718c0.073-0.132,0.145-0.264,0.214-0.4
		c0.132-0.259,0.253-0.526,0.37-0.796c0.053-0.125,0.111-0.245,0.16-0.373c0.158-0.399,0.301-0.804,0.425-1.225
		c0.396-1.362,0.571-2.736,0.545-4.084c-0.108-5.839-3.973-11.18-9.876-12.897c-1.443-0.419-2.866-0.847-4.276-1.28
		c-0.943-0.29-1.87-0.586-2.798-0.882c-0.401-0.127-0.81-0.253-1.208-0.382c-39.938-12.95-65.275-31.412-65.275-48.007
		c0-3.285,0.938-6.547,2.865-9.967c0.018-0.03,0.036-0.06,0.053-0.092c3.47-6.003,1.906-13.655-3.643-17.815
		c-0.922-0.692-1.918-1.258-2.963-1.692c-31.071-13.329-48.882-29.542-48.882-44.5C27.4,105.164,49.571,86.965,86.707,73.094z"/>
	<path style="fill:#2D527C;" d="M361.86,403.647c0-8.103-3.757-19.815-21.655-29.591c-6.642-3.626-14.963-1.185-18.591,5.455
		c-3.626,6.64-1.184,14.963,5.455,18.591c4.825,2.636,6.61,4.703,7.197,5.565c-1.411,2.104-8.173,8.061-26.787,12.672
		c-6.139,1.522-10.441,7.05-10.405,13.375c0.036,6.325,4.398,11.805,10.556,13.256c12.022,2.836,18.17,6.406,20.666,8.503
		c-5.213,4.44-23.807,12.041-54.302,12.041c-7.565,0-13.7,6.133-13.7,13.7c0,7.566,6.135,13.7,13.7,13.7
		c39.831,0,82.701-12.353,82.701-39.473c0-5.536-1.945-13.749-11.246-21.352C356.19,422.855,361.86,413.876,361.86,403.647z"/>
</g>
<path style="fill:#CEE8FA;" d="M246.596,160.818c-48.555,0-95.593-6.129-132.451-17.259c-25.625-7.738-40.455-16.156-47.879-21.785
	c7.424-5.628,22.253-14.046,47.879-21.785c36.858-11.128,83.896-17.259,132.451-17.259s95.593,6.129,132.451,17.259
	c25.627,7.739,40.455,16.158,47.879,21.785c-7.424,5.628-22.253,14.046-47.879,21.785
	C342.19,154.689,295.152,160.818,246.596,160.818z"/>
<path style="fill:#2D527C;" d="M246.596,174.519c-49.859,0-98.304-6.336-136.41-17.843c-28.245-8.529-43.975-17.751-52.197-23.984
	c-3.415-2.591-5.422-6.629-5.422-10.917c0-4.288,2.007-8.327,5.422-10.917c8.223-6.233,23.951-15.455,52.197-23.984
	c38.106-11.506,86.552-17.843,136.41-17.843s98.304,6.336,136.41,17.843c28.245,8.529,43.975,17.751,52.198,23.984
	c3.415,2.591,5.422,6.629,5.422,10.917c0,4.288-2.007,8.327-5.422,10.917c-8.223,6.233-23.951,15.455-52.198,23.984
	C344.9,168.182,296.455,174.519,246.596,174.519z M94.227,121.775c6.28,2.755,14.152,5.733,23.879,8.672
	c35.608,10.752,81.241,16.673,128.49,16.673s92.882-5.921,128.49-16.674c9.727-2.937,17.599-5.916,23.879-8.671
	c-6.28-2.755-14.152-5.733-23.879-8.672c-35.608-10.752-81.241-16.673-128.49-16.673s-92.882,5.921-128.49,16.674
	C108.379,116.042,100.507,119.02,94.227,121.775z"/>
<g>
</g>
<g>
</g>
<g>
</g>
<g>
</g>
<g>
</g>
<g>
</g>
<g>
</g>
<g>
</g>
<g>
</g>
<g>
</g>
<g>
</g>
<g>
</g>
<g>
</g>
<g>
</g>
<g>
</g>
</svg>
