<?xml version="1.0" encoding="iso-8859-1"?>
<!-- Generator: Adobe Illustrator 19.0.0, SVG Export Plug-In . SVG Version: 6.00 Build 0)  -->
<svg version="1.1" id="Layer_1" xmlns="http://www.w3.org/2000/svg" xmlns:xlink="http://www.w3.org/1999/xlink" x="0px" y="0px"
	 viewBox="0 0 512 512" style="enable-background:new 0 0 512 512;" xml:space="preserve">
<circle style="fill:#CEE8FA;" cx="379.002" cy="256.005" r="118.051"/>
<g>
	<path style="fill:#2D527C;" d="M379.006,388.993c-73.333,0-132.994-59.66-132.994-132.994s59.66-132.994,132.994-132.994
		S512,182.666,512,255.999S452.34,388.993,379.006,388.993z M379.006,152.892c-56.854,0-103.107,46.253-103.107,103.107
		s46.253,103.107,103.107,103.107s103.107-46.253,103.107-103.107S435.86,152.892,379.006,152.892z"/>
	<path style="fill:#2D527C;" d="M252.507,401.154c-38.771,0-75.222-15.099-102.64-42.515c-28.26-28.26-43.347-65.833-42.48-105.8
		c0.813-37.57,15.899-72.898,42.48-99.479c27.415-27.416,63.865-42.515,102.638-42.515c8.253,0,14.943,6.69,14.943,14.943
		s-6.69,14.943-14.943,14.943c-30.789,0-59.735,11.989-81.506,33.761c-21.109,21.107-33.089,49.161-33.734,78.994
		c-0.687,31.741,11.292,61.579,33.734,84.021c21.772,21.771,50.717,33.761,81.506,33.761c8.253,0,14.943,6.69,14.943,14.943
		C267.449,394.464,260.759,401.154,252.507,401.154z"/>
	<path style="fill:#2D527C;" d="M252.507,91.009c-8.253,0-14.943-6.69-14.943-14.943v-57.63c0-8.253,6.69-14.943,14.943-14.943
		s14.943,6.69,14.943,14.943v57.63C267.45,84.319,260.759,91.009,252.507,91.009z"/>
	<path style="fill:#2D527C;" d="M252.507,508.506c-8.253,0-14.943-6.69-14.943-14.943v-57.63c0-8.253,6.69-14.943,14.943-14.943
		s14.943,6.69,14.943,14.943v57.63C267.45,501.816,260.759,508.506,252.507,508.506z"/>
	<path style="fill:#2D527C;" d="M112.973,410.477c-3.824,0-7.649-1.458-10.566-4.377c-5.835-5.835-5.835-15.297,0-21.134
		l12.301-12.301c5.835-5.835,15.297-5.835,21.134,0c5.835,5.835,5.835,15.297,0,21.134L123.541,406.1
		C120.621,409.018,116.797,410.477,112.973,410.477z"/>
	<path style="fill:#2D527C;" d="M125.274,143.711c-3.824,0-7.649-1.458-10.566-4.377l-12.301-12.301
		c-5.835-5.835-5.835-15.297,0-21.134c5.835-5.835,15.297-5.835,21.134,0l12.301,12.301c5.835,5.835,5.835,15.297,0,21.134
		C132.923,142.252,129.098,143.711,125.274,143.711z"/>
	<path style="fill:#2D527C;" d="M72.573,270.942h-57.63C6.69,270.942,0,264.252,0,255.999c0-8.253,6.69-14.943,14.943-14.943h57.63
		c8.253,0,14.943,6.69,14.943,14.943C87.516,264.252,80.826,270.942,72.573,270.942z"/>
</g>
<g>
</g>
<g>
</g>
<g>
</g>
<g>
</g>
<g>
</g>
<g>
</g>
<g>
</g>
<g>
</g>
<g>
</g>
<g>
</g>
<g>
</g>
<g>
</g>
<g>
</g>
<g>
</g>
<g>
</g>
</svg>
