<?xml version="1.0" encoding="iso-8859-1"?>
<!-- Generator: Adobe Illustrator 19.0.0, SVG Export Plug-In . SVG Version: 6.00 Build 0)  -->
<svg version="1.1" id="Layer_1" xmlns="http://www.w3.org/2000/svg" xmlns:xlink="http://www.w3.org/1999/xlink" x="0px" y="0px"
	 viewBox="0 0 511.998 511.998" style="enable-background:new 0 0 511.998 511.998;" xml:space="preserve">
<path style="fill:#2D527C;" d="M144.845,207.496h-14.94v-14.94c0-9.267-7.514-16.783-16.783-16.783s-16.783,7.515-16.783,16.783
	v14.94H81.399c-9.269,0-16.783,7.515-16.783,16.783s7.514,16.783,16.783,16.783H96.34v14.94c0,9.267,7.514,16.783,16.783,16.783
	s16.783-7.515,16.783-16.783v-14.94h14.94c9.269,0,16.783-7.515,16.783-16.783S154.114,207.496,144.845,207.496z"/>
<path style="fill:#CEE8FA;" d="M424.011,79.799c-9.705-9.705-20.027-18.409-30.836-26.127
	c67.932,95.053,59.246,228.003-26.094,313.342S148.792,461.04,53.739,393.108c7.718,10.808,16.422,21.131,26.127,30.836
	c95.031,95.031,249.113,95.031,344.144,0S519.042,174.831,424.011,79.799z"/>
<path style="fill:#2D527C;" d="M284.677,509.968c57.082-7.122,109.872-32.827,151.201-74.155
	c37.752-37.754,61.443-84.322,71.089-133.141c0.629-3.182,1.192-6.374,1.7-9.573c0.378-2.373,0.722-4.751,1.034-7.131
	c10.157-77.461-14.44-158.65-73.825-218.035c-20.653-20.654-44.326-37.527-70.351-50.151c-14.79-7.183-30.351-12.973-46.251-17.212
	c-5.787-1.547-11.958,0.112-16.192,4.352c-4.234,4.236-5.889,10.407-4.345,16.193c11.368,42.569,10.174,87.194-3.456,129.048
	c-2.87,8.814,1.948,18.286,10.761,21.154c8.814,2.871,18.285-1.947,21.154-10.761c12.525-38.459,15.901-78.952,10.056-118.639
	c4.608,1.871,9.155,3.894,13.619,6.06c10.56,5.122,20.654,11.083,30.269,17.774c62.772,90.136,52.071,211.4-25.926,289.396
	c-42.782,42.782-99.67,66.345-160.181,66.348c-46.634,0.002-91.25-14.005-129.251-40.474c-6.678-9.6-12.627-19.679-17.741-30.222
	c-2.172-4.474-4.196-9.026-6.069-13.643c80.694,11.76,163.502-15.087,221.833-73.419c6.554-6.554,6.554-17.18,0-23.736
	c-6.554-6.552-17.18-6.552-23.736,0c-57.017,57.02-140.891,79.499-218.888,58.668c-5.785-1.542-11.958,0.111-16.193,4.343
	c-4.236,4.233-5.896,10.404-4.353,16.192c4.234,15.886,10.024,31.447,17.209,46.246c11.845,24.422,27.433,46.768,46.37,66.494
	c1.249,1.302,2.511,2.591,3.786,3.865c49.131,49.131,114.455,76.188,183.938,76.188l0,0l0,0c10.602,0,21.106-0.638,31.471-1.88
	c0.248-0.03,0.5-0.052,0.748-0.082C284.331,510.016,284.503,509.99,284.677,509.968z M195.033,455.06
	c69.476-0.003,134.792-27.057,183.915-76.179c43.807-43.809,70.581-101.907,75.387-163.595c1.957-25.112,0.247-50.205-4.909-74.489
	c0.047,0.086,0.097,0.168,0.146,0.253c1.322,2.361,2.591,4.744,3.823,7.143c0.257,0.5,0.514,1.002,0.767,1.505
	c1.208,2.395,2.378,4.803,3.496,7.23c0.161,0.351,0.314,0.705,0.475,1.057c1.035,2.279,2.029,4.572,2.984,6.876
	c0.161,0.388,0.329,0.772,0.487,1.161c0.995,2.439,1.937,4.894,2.843,7.357c0.206,0.564,0.411,1.128,0.614,1.692
	c0.886,2.469,1.737,4.947,2.534,7.441c0.124,0.386,0.237,0.775,0.359,1.161c0.725,2.309,1.411,4.629,2.059,6.956
	c0.129,0.462,0.265,0.921,0.391,1.385c0.676,2.487,1.304,4.984,1.895,7.49c0.144,0.613,0.285,1.225,0.425,1.839
	c0.572,2.517,1.111,5.041,1.596,7.574c0.079,0.411,0.148,0.826,0.223,1.239c0.431,2.324,0.826,4.654,1.185,6.99
	c0.079,0.519,0.166,1.034,0.243,1.552c0.369,2.516,0.69,5.036,0.975,7.562c0.072,0.641,0.141,1.284,0.206,1.927
	c0.265,2.548,0.5,5.097,0.68,7.649c0.03,0.418,0.047,0.837,0.076,1.255c0.151,2.333,0.263,4.667,0.342,7.003
	c0.018,0.552,0.044,1.106,0.059,1.658c0.067,2.524,0.087,5.05,0.072,7.576c-0.005,0.653-0.013,1.306-0.024,1.959
	c-0.039,2.558-0.107,5.117-0.232,7.671c-0.018,0.394-0.049,0.787-0.07,1.18c-0.126,2.346-0.292,4.692-0.49,7.034
	c-0.047,0.562-0.089,1.124-0.141,1.687c-0.232,2.517-0.512,5.033-0.827,7.544c-0.081,0.639-0.166,1.277-0.252,1.917
	c-0.344,2.554-0.717,5.104-1.148,7.646c-0.059,0.347-0.128,0.693-0.188,1.039c-0.409,2.355-0.861,4.704-1.346,7.047
	c-0.114,0.554-0.223,1.108-0.341,1.66c-0.534,2.491-1.114,4.974-1.734,7.448c-0.153,0.608-0.31,1.213-0.467,1.821
	c-0.655,2.526-1.338,5.047-2.081,7.554c-0.084,0.285-0.178,0.567-0.263,0.853c-0.707,2.35-1.457,4.689-2.24,7.02
	c-0.178,0.53-0.352,1.062-0.534,1.593c-0.839,2.437-1.725,4.862-2.652,7.275c-0.216,0.566-0.44,1.129-0.661,1.693
	c-0.972,2.474-1.974,4.937-3.034,7.381c-0.092,0.211-0.191,0.421-0.284,0.633c-1.019,2.328-2.088,4.639-3.189,6.938
	c-0.237,0.495-0.47,0.992-0.71,1.485c-1.151,2.358-2.348,4.701-3.585,7.025c-0.274,0.515-0.556,1.027-0.832,1.541
	c-1.296,2.388-2.621,4.765-4.009,7.116c-0.084,0.141-0.171,0.28-0.255,0.421c-1.344,2.267-2.742,4.509-4.174,6.738
	c-0.299,0.465-0.592,0.931-0.895,1.395c-1.462,2.24-2.969,4.459-4.518,6.658c-0.329,0.467-0.665,0.93-0.997,1.395
	c-1.623,2.266-3.276,4.514-4.993,6.731c-0.064,0.082-0.129,0.161-0.193,0.243c-1.68,2.165-3.419,4.3-5.187,6.416
	c-0.361,0.431-0.718,0.864-1.082,1.294c-1.771,2.084-3.585,4.145-5.443,6.179c-0.389,0.426-0.785,0.849-1.18,1.272
	c-1.922,2.073-3.877,4.127-5.891,6.144c-0.032,0.032-0.062,0.065-0.094,0.097c-36.009,36.01-82.006,58.402-131.745,64.596
	c-0.133,0.017-0.265,0.037-0.398,0.054c-0.243,0.03-0.49,0.052-0.733,0.081c-2.818,0.336-5.647,0.614-8.489,0.846
	c-1.596,0.131-3.195,0.243-4.798,0.341c-4.657,0.282-9.338,0.443-14.044,0.443c0,0-0.002,0-0.003,0
	c-2.234,0-4.459-0.042-6.681-0.106c-0.676-0.018-1.351-0.049-2.026-0.074c-1.603-0.06-3.204-0.136-4.801-0.23
	c-0.708-0.042-1.415-0.082-2.121-0.129c-1.846-0.124-3.687-0.272-5.523-0.441c-0.371-0.034-0.742-0.059-1.113-0.096
	c-2.18-0.211-4.352-0.458-6.517-0.732c-0.626-0.079-1.25-0.17-1.876-0.253c-1.583-0.213-3.16-0.44-4.734-0.685
	c-0.725-0.112-1.45-0.228-2.175-0.349c-1.626-0.27-3.247-0.559-4.865-0.864c-0.552-0.104-1.106-0.2-1.656-0.307
	c-2.113-0.415-4.219-0.859-6.315-1.333c-0.549-0.124-1.093-0.26-1.64-0.388c-1.589-0.371-3.174-0.759-4.753-1.163
	c-0.723-0.186-1.443-0.376-2.163-0.569c-1.494-0.399-2.981-0.817-4.464-1.247c-0.634-0.185-1.272-0.362-1.905-0.552
	c-2.044-0.613-4.082-1.249-6.105-1.918c-0.406-0.134-0.809-0.28-1.215-0.418c-1.653-0.557-3.299-1.133-4.939-1.729
	c-0.696-0.253-1.391-0.514-2.084-0.775c-1.406-0.527-2.808-1.069-4.202-1.625c-0.665-0.263-1.329-0.525-1.99-0.795
	c-1.871-0.765-3.732-1.552-5.582-2.368c-0.196-0.087-0.393-0.171-0.589-0.258c-1.886-0.839-3.758-1.71-5.62-2.601
	c-0.636-0.304-1.267-0.618-1.901-0.928c-1.361-0.668-2.717-1.348-4.065-2.042c-0.649-0.334-1.299-0.668-1.945-1.01
	c-1.557-0.822-3.106-1.665-4.645-2.524c-0.292-0.163-0.587-0.321-0.879-0.485C158.493,453.164,176.629,455.06,195.033,455.06z"/>
<g>
</g>
<g>
</g>
<g>
</g>
<g>
</g>
<g>
</g>
<g>
</g>
<g>
</g>
<g>
</g>
<g>
</g>
<g>
</g>
<g>
</g>
<g>
</g>
<g>
</g>
<g>
</g>
<g>
</g>
</svg>
