<?xml version="1.0" encoding="iso-8859-1"?>
<!-- Generator: Adobe Illustrator 19.0.0, SVG Export Plug-In . SVG Version: 6.00 Build 0)  -->
<svg version="1.1" id="Layer_1" xmlns="http://www.w3.org/2000/svg" xmlns:xlink="http://www.w3.org/1999/xlink" x="0px" y="0px"
	 viewBox="0 0 512 512" style="enable-background:new 0 0 512 512;" xml:space="preserve">
<g>
	<path style="fill:#2D527C;" d="M200.397,323.695h-11.561v-11.561c0-9.122-7.396-16.516-16.516-16.516
		c-9.12,0-16.516,7.394-16.516,16.516v11.561h-11.561c-9.12,0-16.516,7.394-16.516,16.516s7.396,16.516,16.516,16.516h11.561v11.561
		c0,9.122,7.396,16.516,16.516,16.516c9.12,0,16.516-7.394,16.516-16.516v-11.561h11.561c9.12,0,16.516-7.394,16.516-16.516
		S209.517,323.695,200.397,323.695z"/>
	<path style="fill:#2D527C;" d="M140.389,251.045v-11.561h11.561c9.12,0,16.516-7.394,16.516-16.516
		c0-9.122-7.396-16.516-16.516-16.516h-11.561V194.89c0-9.122-7.396-16.516-16.516-16.516s-16.516,7.394-16.516,16.516v11.561
		H95.795c-9.12,0-16.516,7.394-16.516,16.516c0,9.122,7.396,16.516,16.516,16.516h11.561v11.561c0,9.122,7.396,16.516,16.516,16.516
		S140.389,260.167,140.389,251.045z"/>
</g>
<path style="fill:#CEE8FA;" d="M256.827,16.526v478.946C388.71,495.026,495.486,387.987,495.486,256S388.71,16.974,256.827,16.526z"
	/>
<path style="fill:#2D527C;" d="M269.822,511.623c2.013-0.107,4.022-0.233,6.022-0.388c61.047-4.651,117.801-30.712,161.465-74.511
	c44.968-45.109,71.066-104.048,74.334-167.194c0.007-0.14,0.018-0.281,0.025-0.421c0.092-1.85,0.159-3.705,0.211-5.563
	c0.01-0.339,0.028-0.676,0.036-1.016c0.054-2.174,0.083-4.35,0.083-6.532c0-2.182-0.03-4.36-0.083-6.532
	c-0.008-0.339-0.026-0.676-0.036-1.016c-0.053-1.858-0.119-3.713-0.211-5.563c-0.007-0.14-0.018-0.281-0.025-0.421
	c-3.269-63.146-29.366-122.086-74.334-167.194C393.647,31.478,336.896,5.417,275.852,0.765c-2.048-0.157-4.104-0.287-6.167-0.396
	c-0.023-0.002-0.046-0.003-0.068-0.005c-4.136-0.218-8.298-0.33-12.481-0.348c-0.084,0-0.168-0.003-0.253-0.003
	c-0.02,0-0.036,0-0.056,0l0,0C256.552,0.01,256.277,0,256.002,0c-35.663,0-70.182,7.198-102.6,21.393
	c-8.355,3.658-12.162,13.398-8.503,21.753c3.658,8.356,13.396,12.162,21.755,8.504c23.436-10.263,48.149-16.308,73.659-18.065
	v444.822C124.66,470.328,33.034,373.669,33.034,256c0-41.718,11.589-82.392,33.511-117.623c4.819-7.744,2.448-17.928-5.297-22.748
	s-17.928-2.446-22.748,5.297C13.315,161.399,0.002,208.107,0.002,256c0,141.158,114.84,256,256,256c0.276,0,0.55-0.01,0.826-0.01
	l0,0c0.018,0,0.036,0,0.056,0c0.084,0,0.168-0.003,0.254-0.003c4.182-0.018,8.342-0.13,12.475-0.348
	C269.684,511.633,269.753,511.627,269.822,511.623z M273.344,33.711c96.851,7.5,176.62,77.3,199.213,169.158
	c0.012,0.05,0.023,0.097,0.036,0.147c0.391,1.597,0.765,3.202,1.121,4.813c0.041,0.19,0.083,0.382,0.124,0.571
	c0.327,1.49,0.637,2.986,0.933,4.486c0.063,0.32,0.122,0.641,0.185,0.961c0.268,1.392,0.525,2.786,0.766,4.187
	c0.076,0.439,0.147,0.88,0.22,1.321c0.216,1.3,0.426,2.601,0.619,3.908c0.081,0.552,0.155,1.107,0.233,1.66
	c0.17,1.211,0.337,2.423,0.487,3.64c0.083,0.667,0.154,1.338,0.23,2.007c0.127,1.118,0.256,2.236,0.367,3.359
	c0.078,0.789,0.142,1.582,0.211,2.375c0.089,1.017,0.183,2.035,0.259,3.057c0.069,0.932,0.121,1.87,0.178,2.804
	c0.054,0.895,0.119,1.787,0.164,2.686c0.056,1.146,0.092,2.299,0.132,3.45c0.025,0.7,0.059,1.396,0.076,2.098
	c0.046,1.861,0.071,3.729,0.071,5.602c0,1.873-0.025,3.741-0.071,5.602c-0.018,0.7-0.053,1.397-0.076,2.096
	c-0.04,1.151-0.074,2.304-0.132,3.45c-0.045,0.897-0.107,1.79-0.164,2.684c-0.058,0.936-0.109,1.873-0.178,2.806
	c-0.076,1.021-0.17,2.036-0.259,3.052c-0.069,0.793-0.134,1.589-0.211,2.38c-0.111,1.121-0.239,2.238-0.367,3.356
	c-0.076,0.671-0.149,1.341-0.231,2.01c-0.15,1.216-0.317,2.426-0.487,3.635c-0.078,0.555-0.152,1.112-0.233,1.666
	c-0.193,1.305-0.401,2.603-0.618,3.899c-0.074,0.444-0.145,0.889-0.221,1.331c-0.241,1.397-0.499,2.79-0.765,4.179
	c-0.063,0.322-0.122,0.646-0.187,0.968c-0.296,1.498-0.606,2.991-0.931,4.478c-0.041,0.195-0.084,0.388-0.127,0.583
	c-0.357,1.607-0.728,3.209-1.12,4.801c-0.013,0.053-0.026,0.106-0.038,0.159c-22.592,91.854-102.362,161.653-199.211,169.153V33.711
	H273.344z"/>
<g>
</g>
<g>
</g>
<g>
</g>
<g>
</g>
<g>
</g>
<g>
</g>
<g>
</g>
<g>
</g>
<g>
</g>
<g>
</g>
<g>
</g>
<g>
</g>
<g>
</g>
<g>
</g>
<g>
</g>
</svg>
