<?xml version="1.0" encoding="iso-8859-1"?>
<!-- Generator: Adobe Illustrator 19.0.0, SVG Export Plug-In . SVG Version: 6.00 Build 0)  -->
<svg version="1.1" id="Layer_1" xmlns="http://www.w3.org/2000/svg" xmlns:xlink="http://www.w3.org/1999/xlink" x="0px" y="0px"
	 viewBox="0 0 512 512" style="enable-background:new 0 0 512 512;" xml:space="preserve">
<g>
	<path style="fill:#2D527C;" d="M429.866,225.639h-11.593v-11.593c0-9.147-7.416-16.561-16.561-16.561s-16.561,7.414-16.561,16.561
		v11.593h-11.593c-9.145,0-16.561,7.414-16.561,16.561s7.416,16.561,16.561,16.561h11.593v11.593
		c0,9.147,7.416,16.561,16.561,16.561s16.561-7.414,16.561-16.561v-11.593h11.593c9.145,0,16.561-7.414,16.561-16.561
		S439.012,225.639,429.866,225.639z"/>
	<path style="fill:#2D527C;" d="M380.183,137.865v-11.593h11.593c9.145,0,16.561-7.414,16.561-16.561s-7.416-16.561-16.561-16.561
		h-11.593V81.558c0-9.147-7.416-16.561-16.561-16.561c-9.145,0-16.561,7.414-16.561,16.561v11.593h-11.593
		c-9.145,0-16.561,7.414-16.561,16.561s7.416,16.561,16.561,16.561h11.593v11.593c0,9.147,7.416,16.561,16.561,16.561
		C372.767,154.426,380.183,147.012,380.183,137.865z"/>
</g>
<path style="fill:#CEE8FA;" d="M256,16.561c24.626,0,48.375,3.71,70.732,10.616C229.039,57.351,158.042,148.387,158.042,256
	s70.997,198.649,168.69,228.823c-22.357,6.906-46.106,10.616-70.732,10.616C123.76,495.439,16.561,388.24,16.561,256
	S123.76,16.561,256,16.561z"/>
<path style="fill:#2D527C;" d="M468.478,113.166c-5.109-7.588-15.405-9.592-22.987-4.485c-7.587,5.109-9.595,15.402-4.485,22.987
	c24.775,36.789,37.872,79.783,37.872,124.332c0,96.653-60.896,180.959-152.076,211.405c-0.671-0.224-1.346-0.437-2.015-0.667
	c-1.391-0.479-2.772-0.972-4.149-1.476c-1.454-0.532-2.903-1.073-4.341-1.633c-1.365-0.532-2.721-1.076-4.071-1.631
	c-1.418-0.583-2.829-1.177-4.23-1.789c-1.338-0.583-2.668-1.177-3.991-1.785c-1.38-0.633-2.752-1.279-4.115-1.938
	c-1.312-0.634-2.613-1.279-3.908-1.936c-1.341-0.681-2.675-1.376-3.998-2.082c-1.282-0.684-2.555-1.378-3.821-2.083
	c-1.305-0.729-2.598-1.472-3.885-2.224c-1.25-0.732-2.494-1.472-3.726-2.226c-1.265-0.773-2.519-1.563-3.766-2.362
	c-1.219-0.778-2.429-1.565-3.63-2.367c-1.226-0.818-2.438-1.651-3.643-2.491c-1.186-0.826-2.367-1.658-3.536-2.506
	c-1.184-0.86-2.353-1.736-3.519-2.617c-1.151-0.871-2.299-1.747-3.431-2.64c-1.144-0.903-2.274-1.82-3.398-2.744
	c-1.115-0.914-2.224-1.83-3.319-2.766c-1.105-0.944-2.193-1.903-3.277-2.867c-1.075-0.956-2.148-1.913-3.205-2.888
	c-1.062-0.982-2.107-1.981-3.148-2.983c-1.038-0.997-2.075-1.996-3.092-3.012c-1.02-1.02-2.02-2.057-3.021-3.095
	c-0.995-1.035-1.992-2.07-2.968-3.123c-0.979-1.058-1.938-2.135-2.895-3.211c-0.954-1.072-1.908-2.143-2.84-3.233
	c-0.937-1.096-1.852-2.209-2.766-3.324c-0.909-1.106-1.82-2.209-2.708-3.332c-0.894-1.133-1.764-2.284-2.637-3.433
	c-0.864-1.139-1.732-2.277-2.574-3.431c-0.85-1.166-1.673-2.352-2.501-3.536c-0.82-1.171-1.643-2.34-2.439-3.527
	c-0.807-1.202-1.583-2.423-2.365-3.642c-0.77-1.199-1.547-2.395-2.294-3.61c-0.762-1.237-1.492-2.494-2.231-3.746
	c-0.722-1.227-1.451-2.448-2.15-3.69c-0.715-1.27-1.398-2.56-2.088-3.847c-0.672-1.252-1.353-2.499-2.002-3.764
	c-0.669-1.303-1.302-2.627-1.944-3.945c-0.623-1.275-1.255-2.545-1.853-3.834c-0.621-1.338-1.206-2.696-1.8-4.049
	c-0.568-1.293-1.149-2.58-1.694-3.885c-0.573-1.376-1.11-2.771-1.656-4.158c-0.515-1.308-1.045-2.61-1.535-3.93
	c-0.525-1.413-1.009-2.842-1.507-4.266c-0.46-1.32-0.937-2.633-1.373-3.965c-0.475-1.449-0.908-2.916-1.353-4.379
	c-0.406-1.33-0.83-2.653-1.211-3.991c-0.424-1.487-0.802-2.991-1.194-4.49c-0.351-1.335-0.72-2.663-1.047-4.008
	c-0.373-1.535-0.696-3.087-1.035-4.632c-0.293-1.328-0.606-2.648-0.876-3.985c-0.32-1.587-0.586-3.191-0.873-4.791
	c-0.235-1.315-0.493-2.622-0.705-3.943c-0.265-1.654-0.475-3.324-0.704-4.988c-0.176-1.283-0.379-2.559-0.533-3.849
	c-0.212-1.764-0.364-3.544-0.535-5.319c-0.116-1.206-0.26-2.403-0.356-3.614c-0.159-1.996-0.255-4.008-0.363-6.017
	c-0.053-1.004-0.137-2.001-0.177-3.007c-0.121-3.022-0.182-6.058-0.182-9.107c0-98.396,63.101-183.993,157.018-212.999
	c0.495-0.152,0.974-0.333,1.446-0.528c0.164-0.068,0.321-0.144,0.482-0.215c0.301-0.136,0.598-0.278,0.889-0.431
	c0.182-0.096,0.361-0.194,0.538-0.295c0.262-0.151,0.517-0.31,0.768-0.472c0.172-0.111,0.346-0.22,0.512-0.336
	c0.291-0.205,0.571-0.422,0.848-0.644c0.179-0.142,0.353-0.288,0.525-0.439c0.283-0.247,0.56-0.5,0.825-0.765
	c0.137-0.139,0.267-0.283,0.399-0.427c0.205-0.22,0.406-0.444,0.598-0.674c0.124-0.151,0.247-0.303,0.366-0.457
	c0.192-0.248,0.376-0.502,0.553-0.76c0.098-0.142,0.197-0.283,0.291-0.429c0.214-0.331,0.412-0.672,0.603-1.02
	c0.043-0.079,0.091-0.154,0.134-0.235c0.229-0.436,0.437-0.881,0.626-1.336c0.046-0.109,0.083-0.222,0.126-0.333
	c0.134-0.343,0.26-0.689,0.371-1.04c0.055-0.172,0.103-0.348,0.152-0.522c0.083-0.293,0.157-0.588,0.224-0.888
	c0.045-0.204,0.088-0.407,0.126-0.613c0.05-0.275,0.089-0.551,0.126-0.831c0.028-0.222,0.061-0.442,0.081-0.664
	c0.025-0.288,0.035-0.58,0.045-0.871c0.012-0.318,0.017-0.636,0.01-0.957c-0.008-0.364-0.022-0.727-0.051-1.086
	c-0.017-0.189-0.046-0.376-0.07-0.565c-0.04-0.331-0.088-0.661-0.147-0.989c-0.033-0.172-0.068-0.344-0.106-0.518
	c-0.081-0.369-0.174-0.734-0.278-1.093c-0.026-0.091-0.041-0.184-0.07-0.277c-0.013-0.045-0.033-0.084-0.048-0.129
	c-0.156-0.492-0.328-0.975-0.528-1.449c-0.02-0.045-0.043-0.086-0.061-0.131c-0.177-0.409-0.371-0.808-0.581-1.199
	c-0.098-0.182-0.202-0.359-0.306-0.537c-0.142-0.245-0.29-0.485-0.445-0.724c-0.126-0.192-0.253-0.383-0.386-0.57
	c-0.157-0.219-0.321-0.431-0.489-0.643c-0.137-0.172-0.27-0.349-0.414-0.517c-0.298-0.348-0.608-0.686-0.936-1.007
	c-0.109-0.108-0.229-0.207-0.341-0.311c-0.248-0.232-0.502-0.46-0.765-0.679c-0.142-0.116-0.29-0.225-0.434-0.338
	c-0.25-0.192-0.505-0.379-0.767-0.558c-0.151-0.103-0.303-0.202-0.457-0.3c-0.272-0.172-0.55-0.336-0.833-0.494
	c-0.152-0.084-0.303-0.171-0.457-0.252c-0.306-0.157-0.621-0.301-0.939-0.441c-0.139-0.061-0.277-0.129-0.417-0.187
	c-0.434-0.176-0.878-0.336-1.33-0.477c-0.008-0.002-0.017-0.005-0.025-0.007c-0.065-0.02-0.128-0.036-0.192-0.055
	C307.079,3.801,281.711,0,256,0C114.842,0,0,114.841,0,256s114.842,256,256,256c25.787,0,51.23-3.821,75.619-11.353
	c0.005-0.002,0.01-0.003,0.015-0.005c51.147-15.799,97.082-48.207,129.345-91.258C494.356,364.844,512,311.806,512,256.002
	C512,204.835,496.949,155.443,468.478,113.166z M256,478.878c-122.896,0-222.878-99.982-222.878-222.878S133.104,33.122,256,33.122
	c4.934,0,9.85,0.161,14.748,0.48c-0.262,0.149-0.517,0.308-0.777,0.459c-1.396,0.807-2.786,1.625-4.167,2.456
	c-0.522,0.315-1.042,0.633-1.562,0.951c-1.259,0.77-2.511,1.553-3.756,2.345c-0.462,0.293-0.927,0.585-1.388,0.881
	c-1.671,1.078-3.334,2.171-4.98,3.286c-0.119,0.079-0.235,0.164-0.353,0.243c-1.522,1.035-3.031,2.088-4.529,3.157
	c-0.482,0.343-0.959,0.691-1.437,1.035c-1.179,0.851-2.352,1.712-3.518,2.585c-0.477,0.358-0.956,0.712-1.429,1.071
	c-1.436,1.09-2.863,2.191-4.276,3.312c-0.142,0.113-0.288,0.224-0.431,0.336c-1.555,1.237-3.095,2.497-4.622,3.769
	c-0.419,0.349-0.835,0.705-1.252,1.058c-1.126,0.951-2.246,1.911-3.357,2.882c-0.465,0.407-0.931,0.815-1.394,1.226
	c-1.189,1.053-2.368,2.12-3.537,3.196c-0.301,0.277-0.608,0.55-0.908,0.828c-1.452,1.35-2.89,2.716-4.313,4.099
	c-0.336,0.326-0.666,0.659-1,0.987c-1.093,1.075-2.178,2.158-3.253,3.253c-0.442,0.45-0.883,0.903-1.322,1.358
	c-1.033,1.068-2.057,2.146-3.072,3.234c-0.359,0.384-0.722,0.765-1.078,1.151c-1.343,1.456-2.673,2.926-3.981,4.414
	c-0.217,0.247-0.429,0.5-0.646,0.747c-1.093,1.25-2.173,2.512-3.241,3.784c-0.404,0.48-0.803,0.966-1.204,1.449
	c-0.916,1.108-1.823,2.224-2.721,3.349c-0.373,0.465-0.747,0.931-1.116,1.399c-1.227,1.56-2.443,3.128-3.632,4.718
	c-33.375,44.538-51.016,97.576-51.016,153.38c0,8.719,0.431,17.371,1.285,25.933c4.442,44.524,20.332,86.632,46.651,123.249
	c1.012,1.408,2.04,2.809,3.084,4.2c1.191,1.59,2.406,3.16,3.635,4.72c0.366,0.465,0.739,0.926,1.108,1.389
	c0.903,1.131,1.813,2.252,2.736,3.367c0.394,0.477,0.787,0.952,1.184,1.426c1.08,1.287,2.173,2.562,3.277,3.826
	c0.205,0.235,0.406,0.474,0.613,0.709c1.313,1.492,2.646,2.966,3.993,4.425c0.349,0.379,0.707,0.754,1.058,1.131
	c1.023,1.096,2.055,2.183,3.097,3.261c0.431,0.445,0.864,0.891,1.298,1.335c1.083,1.105,2.178,2.198,3.279,3.281
	c0.326,0.321,0.649,0.646,0.977,0.966c1.426,1.386,2.865,2.757,4.322,4.109c0.293,0.272,0.591,0.538,0.886,0.81
	c1.176,1.083,2.363,2.155,3.559,3.215c0.46,0.407,0.922,0.813,1.386,1.217c1.113,0.972,2.234,1.933,3.362,2.887
	c0.417,0.353,0.831,0.707,1.25,1.057c1.527,1.274,3.067,2.532,4.622,3.769c0.144,0.114,0.29,0.225,0.434,0.338
	c1.411,1.118,2.835,2.219,4.269,3.306c0.479,0.363,0.961,0.722,1.442,1.081c1.158,0.866,2.324,1.722,3.496,2.57
	c0.485,0.351,0.97,0.704,1.459,1.052c1.479,1.052,2.966,2.09,4.467,3.112c0.139,0.094,0.277,0.194,0.417,0.288
	c1.64,1.111,3.296,2.199,4.96,3.274c0.472,0.305,0.947,0.601,1.421,0.903c1.23,0.782,2.466,1.553,3.71,2.315
	c0.533,0.326,1.066,0.653,1.603,0.975c1.358,0.818,2.724,1.623,4.097,2.416c0.278,0.161,0.551,0.33,0.828,0.489
	C265.85,478.717,260.934,478.878,256,478.878z"/>
<g>
</g>
<g>
</g>
<g>
</g>
<g>
</g>
<g>
</g>
<g>
</g>
<g>
</g>
<g>
</g>
<g>
</g>
<g>
</g>
<g>
</g>
<g>
</g>
<g>
</g>
<g>
</g>
<g>
</g>
</svg>
