<?xml version="1.0" encoding="iso-8859-1"?>
<!-- Generator: Adobe Illustrator 19.0.0, SVG Export Plug-In . SVG Version: 6.00 Build 0)  -->
<svg version="1.1" id="Layer_1" xmlns="http://www.w3.org/2000/svg" xmlns:xlink="http://www.w3.org/1999/xlink" x="0px" y="0px"
	 viewBox="0 0 512 512" style="enable-background:new 0 0 512 512;" xml:space="preserve">
<path style="fill:#CEE8FA;" d="M120.863,232.39c0-51.972,42.13-94.102,94.102-94.102c11.282,0,22.094,1.998,32.117,5.641
	c0.95-5.843,1.464-11.831,1.464-17.941c0-61.323-49.712-111.034-111.034-111.034S26.479,64.665,26.479,125.988
	c0,55.693,41.006,101.801,94.47,109.798C120.907,234.658,120.863,233.53,120.863,232.39z"/>
<g>
	<path style="fill:#2D527C;" d="M458.338,231.728c3.624-11.551,5.452-23.555,5.452-35.855c0-66.3-53.938-120.24-120.238-120.24
		c-30.645,0-59.561,11.656-81.432,31.782C253.113,46.721,200.672,0,137.512,0C68.042,0,11.524,56.518,11.524,125.988
		c0,30.365,10.957,59.697,30.853,82.593c17.304,19.914,40.346,33.838,65.732,39.923c2.761,5.177,8.445,8.46,14.632,7.865
		c8.221-0.79,14.244-8.096,13.455-16.317c-0.154-1.599-0.244-3.179-0.304-4.744c0-0.028,0.003-0.055,0.001-0.082
		c-0.034-0.942-0.075-1.884-0.075-2.834c0-43.642,35.505-79.147,79.147-79.147c1.274,0,2.539,0.036,3.798,0.096
		c0.402,0.019,0.802,0.052,1.204,0.078c0.861,0.054,1.72,0.115,2.574,0.196c0.461,0.043,0.918,0.097,1.377,0.15
		c0.799,0.091,1.594,0.19,2.385,0.304c0.464,0.067,0.926,0.138,1.386,0.212c0.793,0.129,1.581,0.272,2.366,0.423
		c0.44,0.085,0.881,0.169,1.32,0.262c0.837,0.178,1.666,0.374,2.493,0.577c0.372,0.091,0.746,0.175,1.117,0.272
		c1.044,0.274,2.08,0.57,3.108,0.884c0.133,0.04,0.268,0.075,0.401,0.117c0.064,0.019,0.129,0.043,0.193,0.064
		c1.16,0.365,2.312,0.752,3.45,1.169c0.03,0.01,0.06,0.024,0.09,0.034c30.25,11.134,51.884,40.24,51.884,74.307
		c0,8.259,6.697,14.955,14.955,14.955c8.258,0,14.955-6.695,14.955-14.955c0-38.964-20.554-73.201-51.375-92.491
		c16.977-21.491,42.99-34.355,70.904-34.355c49.808,0,90.329,40.523,90.329,90.33c0,13.229-2.814,26.002-8.366,37.962
		c-1.851,3.988-1.853,8.59-0.006,12.58c1.847,3.99,5.357,6.964,9.595,8.132c20.88,5.756,35.462,24.916,35.462,46.593
		c0,26.657-21.686,48.342-48.342,48.342H142.473c-26.655,0-48.342-21.686-48.342-48.342c0-8.259-6.697-14.955-14.955-14.955
		s-14.955,6.695-14.955,14.955c0,43.149,35.104,78.252,78.252,78.252h279.752c43.149,0,78.252-35.104,78.252-78.252
		C500.476,271.625,483.77,244.991,458.338,231.728z M41.433,125.988c0-52.978,43.101-96.079,96.079-96.079
		c52.621,0,95.494,42.523,96.072,95.011c-0.531-0.091-1.065-0.166-1.599-0.25c-0.263-0.042-0.525-0.084-0.788-0.123
		c-0.646-0.097-1.294-0.191-1.943-0.275c-0.302-0.04-0.604-0.072-0.906-0.109c-1.122-0.138-2.246-0.259-3.374-0.36
		c-0.423-0.039-0.846-0.075-1.271-0.109c-0.843-0.067-1.69-0.123-2.538-0.17c-0.333-0.019-0.665-0.04-0.999-0.055
		c-0.292-0.013-0.583-0.028-0.875-0.04c-1.439-0.055-2.88-0.091-4.326-0.091c-1.804,0-3.594,0.049-5.376,0.136
		c-0.591,0.028-1.174,0.085-1.762,0.123c-1.186,0.078-2.37,0.156-3.546,0.271c-0.698,0.069-1.389,0.162-2.083,0.242
		c-1.056,0.124-2.112,0.248-3.158,0.402c-0.731,0.108-1.455,0.235-2.182,0.357c-0.997,0.167-1.995,0.339-2.983,0.534
		c-0.74,0.145-1.473,0.305-2.207,0.467c-0.963,0.211-1.923,0.429-2.877,0.665c-0.736,0.182-1.467,0.372-2.197,0.57
		c-0.941,0.254-1.875,0.52-2.807,0.799c-0.721,0.215-1.442,0.435-2.156,0.665c-0.927,0.299-1.847,0.615-2.762,0.936
		c-0.7,0.247-1.4,0.491-2.092,0.751c-0.926,0.347-1.841,0.716-2.756,1.089c-0.664,0.269-1.329,0.532-1.986,0.815
		c-0.951,0.408-1.887,0.843-2.823,1.279c-0.601,0.28-1.208,0.546-1.802,0.836c-1.062,0.517-2.106,1.065-3.148,1.615
		c-0.452,0.238-0.911,0.461-1.359,0.704c-1.47,0.802-2.919,1.636-4.347,2.502c-0.398,0.241-0.781,0.501-1.175,0.748
		c-1.032,0.645-2.059,1.292-3.069,1.968c-0.552,0.371-1.087,0.761-1.632,1.141c-0.833,0.582-1.664,1.162-2.479,1.765
		c-0.579,0.429-1.146,0.875-1.715,1.316c-0.757,0.585-1.512,1.168-2.254,1.772c-0.579,0.471-1.147,0.956-1.715,1.439
		c-0.709,0.603-1.415,1.207-2.109,1.827c-0.565,0.505-1.123,1.02-1.678,1.536c-0.673,0.627-1.34,1.261-1.996,1.904
		c-0.544,0.532-1.084,1.071-1.617,1.615c-0.643,0.657-1.277,1.323-1.904,1.996c-0.517,0.555-1.033,1.111-1.539,1.678
		c-0.619,0.692-1.225,1.398-1.826,2.107c-0.483,0.57-0.969,1.137-1.442,1.715c-0.604,0.742-1.187,1.498-1.774,2.255
		c-0.44,0.57-0.888,1.135-1.317,1.714c-0.61,0.824-1.196,1.666-1.784,2.508c-0.374,0.534-0.758,1.059-1.122,1.6
		c-0.731,1.089-1.433,2.198-2.127,3.312c-0.194,0.313-0.402,0.616-0.594,0.932c-0.863,1.421-1.693,2.865-2.491,4.328
		c-0.29,0.532-0.558,1.078-0.84,1.615c-0.502,0.959-1.006,1.916-1.482,2.889c-0.308,0.631-0.592,1.274-0.888,1.913
		c-0.417,0.9-0.834,1.799-1.228,2.711c-0.293,0.679-0.565,1.368-0.845,2.055c-0.362,0.891-0.721,1.783-1.06,2.684
		c-0.266,0.71-0.519,1.428-0.772,2.146c-0.316,0.897-0.624,1.798-0.917,2.705c-0.236,0.731-0.462,1.466-0.682,2.204
		c-0.274,0.915-0.535,1.835-0.785,2.759c-0.2,0.742-0.396,1.486-0.582,2.234c-0.233,0.941-0.449,1.886-0.657,2.835
		c-0.163,0.746-0.328,1.492-0.476,2.245c-0.193,0.978-0.362,1.964-0.528,2.952c-0.124,0.734-0.254,1.467-0.363,2.207
		c-0.033,0.223-0.078,0.441-0.109,0.665C68.669,204.168,41.433,167.54,41.433,125.988z"/>
	<path style="fill:#2D527C;" d="M310.688,467.108c-2.248,0-4.528-0.508-6.677-1.582c-7.386-3.694-10.38-12.677-6.688-20.065
		l14.714-29.426c3.694-7.386,12.671-10.382,20.065-6.688c7.386,3.694,10.38,12.677,6.688,20.065l-14.714,29.426
		C321.456,464.078,316.174,467.108,310.688,467.108z"/>
	<path style="fill:#2D527C;" d="M400.281,512c-2.248,0-4.528-0.508-6.677-1.582c-7.386-3.694-10.38-12.677-6.688-20.065
		l14.714-29.426c3.694-7.386,12.673-10.381,20.065-6.688c7.386,3.694,10.38,12.677,6.688,20.065l-14.714,29.426
		C411.049,508.97,405.767,512,400.281,512z"/>
	<path style="fill:#2D527C;" d="M221.095,512c-2.248,0-4.528-0.508-6.676-1.582c-7.388-3.694-10.382-12.677-6.689-20.065
		l14.712-29.426c3.694-7.386,12.676-10.381,20.063-6.688s10.382,12.677,6.689,20.065l-14.712,29.426
		C231.863,508.97,226.581,512,221.095,512z"/>
	<path style="fill:#2D527C;" d="M131.502,467.108c-2.248,0-4.528-0.508-6.676-1.582c-7.388-3.694-10.382-12.677-6.689-20.065
		l14.712-29.426c3.694-7.386,12.677-10.382,20.063-6.688c7.388,3.694,10.382,12.677,6.689,20.065l-14.712,29.426
		C142.269,464.078,136.987,467.108,131.502,467.108z"/>
</g>
<g>
</g>
<g>
</g>
<g>
</g>
<g>
</g>
<g>
</g>
<g>
</g>
<g>
</g>
<g>
</g>
<g>
</g>
<g>
</g>
<g>
</g>
<g>
</g>
<g>
</g>
<g>
</g>
<g>
</g>
</svg>
