<?xml version="1.0" encoding="iso-8859-1"?>
<!-- Generator: Adobe Illustrator 19.0.0, SVG Export Plug-In . SVG Version: 6.00 Build 0)  -->
<svg version="1.1" id="Layer_1" xmlns="http://www.w3.org/2000/svg" xmlns:xlink="http://www.w3.org/1999/xlink" x="0px" y="0px"
	 viewBox="0 0 512 512" style="enable-background:new 0 0 512 512;" xml:space="preserve">
<g>
	<path style="fill:#2D527C;" d="M469.521,193.406c3.651-11.645,5.495-23.748,5.495-36.147c0-66.839-54.377-121.216-121.216-121.216
		c-40.046,0-77.172,19.724-99.68,52.226c-0.728-0.207-1.462-0.39-2.195-0.58c-0.167-0.044-0.333-0.089-0.501-0.133
		c-1.699-0.436-3.407-0.834-5.126-1.187c-0.005,0-0.008-0.002-0.012-0.002c-1.645-0.338-3.299-0.627-4.96-0.888
		c-0.265-0.042-0.531-0.084-0.798-0.125c-3.342-0.499-6.713-0.844-10.11-1.034c-0.397-0.023-0.793-0.042-1.19-0.06
		c-1.683-0.077-3.37-0.128-5.063-0.128c-27.445,0-53.726,10.169-74.003,28.633c-6.156,5.607-6.602,15.141-0.997,21.298
		c5.607,6.157,15.143,6.603,21.298,0.997c14.713-13.397,33.784-20.775,53.702-20.775c1.358,0,2.709,0.035,4.052,0.103
		c0.265,0.014,0.528,0.042,0.793,0.059c1.087,0.065,2.171,0.139,3.246,0.247c0.211,0.021,0.419,0.054,0.63,0.077
		c1.129,0.124,2.255,0.259,3.371,0.43c0.139,0.021,0.276,0.05,0.413,0.072c1.182,0.187,2.358,0.392,3.522,0.63
		c0.096,0.02,0.191,0.045,0.288,0.065c1.203,0.25,2.397,0.523,3.579,0.828c0.065,0.017,0.13,0.038,0.196,0.054
		c1.211,0.315,2.412,0.654,3.6,1.025c0.035,0.011,0.068,0.024,0.103,0.033c32.414,10.146,56.001,40.454,56.001,76.167
		c0,8.327,6.75,15.076,15.076,15.076s15.076-6.75,15.076-15.076c0-39.281-20.721-73.795-51.791-93.244
		c17.115-21.666,43.338-34.635,71.481-34.635c50.213,0,91.064,40.851,91.064,91.064c0,13.336-2.837,26.213-8.434,38.273
		c-1.866,4.021-1.868,8.66-0.005,12.681c1.862,4.022,5.4,7.021,9.674,8.198c21.048,5.803,35.749,25.119,35.749,46.973
		c0,26.873-21.862,48.736-48.735,48.736H277.635c-8.327,0-15.076,6.75-15.076,15.076s6.75,15.076,15.076,15.076h155.477
		c43.499,0,78.888-35.39,78.888-78.888C512,233.628,495.158,206.777,469.521,193.406z"/>
	<path style="fill:#2D527C;" d="M320.669,430.701c-2.266,0-4.565-0.513-6.73-1.595c-7.446-3.724-10.466-12.78-6.742-20.228
		l14.832-29.666c3.724-7.448,12.777-10.466,20.228-6.742c7.446,3.724,10.466,12.78,6.742,20.228l-14.832,29.666
		C331.524,427.647,326.199,430.701,320.669,430.701z"/>
	<path style="fill:#2D527C;" d="M410.991,475.957c-2.266,0-4.567-0.513-6.73-1.595c-7.448-3.724-10.466-12.78-6.742-20.228
		l14.832-29.666c3.724-7.448,12.78-10.466,20.228-6.742c7.448,3.724,10.466,12.78,6.742,20.228l-14.832,29.666
		C421.847,472.903,416.521,475.957,410.991,475.957z"/>
	<path style="fill:#2D527C;" d="M230.347,475.957c-2.266,0-4.567-0.513-6.73-1.595c-7.448-3.724-10.466-12.78-6.742-20.228
		l14.832-29.666c3.724-7.448,12.78-10.466,20.228-6.742c7.448,3.724,10.466,12.78,6.742,20.228l-14.832,29.666
		C241.202,472.903,235.877,475.957,230.347,475.957z"/>
	<path style="fill:#2D527C;" d="M140.024,430.701c-2.266,0-4.565-0.513-6.73-1.595c-7.446-3.724-10.466-12.78-6.742-20.228
		l14.832-29.666c3.724-7.448,12.777-10.466,20.228-6.742c7.446,3.724,10.466,12.78,6.742,20.228l-14.832,29.666
		C150.88,427.647,145.554,430.701,140.024,430.701z"/>
</g>
<path style="fill:#CEE8FA;" d="M139.807,202.465c-35.666-35.666-46.498-86.752-32.519-131.794
	c-19.676,6.106-38.199,16.94-53.778,32.519c-51.244,51.244-51.244,134.328,0,185.572s134.328,51.244,185.572,0
	c15.58-15.58,26.412-34.102,32.519-53.779C226.558,248.965,175.472,238.131,139.807,202.465z"/>
<path style="fill:#2D527C;" d="M146.295,342.273c-39.076,0-75.815-15.218-103.446-42.848C15.218,271.792,0,235.054,0,195.976
	C0,156.9,15.218,120.161,42.85,92.53c16.738-16.739,37.475-29.275,59.97-36.257c5.343-1.658,11.17-0.22,15.129,3.739
	c3.958,3.958,5.397,9.783,3.737,15.129c-12.84,41.368-1.812,86.072,28.781,116.665c21.931,21.931,51.093,34.011,82.113,34.011
	c11.747,0,23.371-1.759,34.55-5.23c5.345-1.658,11.172-0.22,15.129,3.737s5.399,9.783,3.739,15.131
	c-6.982,22.494-19.519,43.231-36.257,59.97C222.111,327.055,185.373,342.273,146.295,342.273z M86.901,96.111
	c-8.204,4.886-15.801,10.811-22.73,17.74c-21.937,21.936-34.018,51.102-34.018,82.125c0,31.024,12.081,60.189,34.018,82.126
	c21.936,21.936,51.102,34.017,82.125,34.017s60.189-12.081,82.126-34.017c6.938-6.94,12.871-14.546,17.76-22.764
	c-4.511,0.418-9.049,0.629-13.6,0.629c-39.073,0-75.808-15.215-103.435-42.842C97.914,181.893,82.87,138.986,86.901,96.111z"/>
<g>
</g>
<g>
</g>
<g>
</g>
<g>
</g>
<g>
</g>
<g>
</g>
<g>
</g>
<g>
</g>
<g>
</g>
<g>
</g>
<g>
</g>
<g>
</g>
<g>
</g>
<g>
</g>
<g>
</g>
</svg>
